<svg xmlns="http://www.w3.org/2000/svg" viewBox="0 0 177.03 158.44"><defs><style>.cls-1{fill:#9a090d;}.cls-2{fill:none;stroke:#9a090d;stroke-miterlimit:10;stroke-width:4px;}</style></defs><title>Ресурс 1</title><g id="Слой_2" data-name="Слой 2"><g id="OBJECTS"><path class="cls-1" d="M89.38,139a59.86,59.86,0,0,0,54.8-35.91h-4.73a55.46,55.46,0,0,1-100.13,0H34.59A59.86,59.86,0,0,0,89.38,139Z" transform="translate(-1.44)"/><path class="cls-1" d="M29.08,55.64a64.75,64.75,0,0,1,120.61,0H164.9a4.35,4.35,0,0,0,0-3.68c-3-6.08-13-4-14-9.26s1.92-9.19.91-13.24-5-3.91-11.25-3.72-6.44-2-8.29-10.31-4.19-7-12.33-4.13-8.79-2.1-12.77-8.1S99,1.1,94.09,5.62s-9.33.51-13.1-3S73.25-2.12,69.24,7s-8.79,3.94-16.57,2.35-6,10.06-7.85,13.38S36.28,26.1,32.7,25.92s-4.92,1.77-4.92,1.77c-2.85,5.64,1.81,11.1,0,15.26-2.62,6-12.73,3.51-13.89,8.87a6.37,6.37,0,0,0,.42,3.82Z" transform="translate(-1.44)"/><path class="cls-1" d="M89.38,19.43A59.89,59.89,0,0,0,34.45,55.64h4.74a55.45,55.45,0,0,1,100.39,0h4.73A59.87,59.87,0,0,0,89.38,19.43Z" transform="translate(-1.44)"/><path class="cls-1" d="M149.57,103.09a64.74,64.74,0,0,1-120.37,0H14.42l-.06.13c-2.42,6,5.18,7.34,10.17,9.22s4.12,6.87,2.78,12.48,2,8.32,8.25,7.56,7.81,1.19,7.81,1.19c4.09,5.65,1.13,12.05,5.5,14.55s9.44-3,15.23-2.21,6.69,13.67,12.59,12.26,7-8.06,13.17-7.67,9,10.57,14.47,7.13,5.24-10.31,9.8-11.68,11.86,4.44,15.55,2.35,2.46-9.52,4.67-13.6,12-1.49,15.19-3.22,2.35-5.43,1.23-11.76,2.86-7.56,6.62-8.68a20.44,20.44,0,0,0,5.75-2.57c2.19-1.47,2.17-3.37,1.34-5.48Z" transform="translate(-1.44)"/><path class="cls-1" d="M16.69,83.55v4.32c0,5.21-2.6,8.18-7.62,8.18s-7.63-3-7.63-8.18V71c0-5.21,2.6-8.19,7.63-8.19s7.62,3,7.62,8.19v3.16H11.86V70.62c0-2.32-1-3.21-2.65-3.21s-2.65.89-2.65,3.21V88.2c0,2.32,1,3.16,2.65,3.16s2.65-.84,2.65-3.16V83.55Z" transform="translate(-1.44)"/><path class="cls-1" d="M18.46,71c0-5.21,2.74-8.19,7.76-8.19S34,65.74,34,71V87.87c0,5.21-2.74,8.18-7.76,8.18s-7.76-3-7.76-8.18ZM23.57,88.2c0,2.32,1,3.2,2.65,3.2s2.65-.88,2.65-3.2V70.62c0-2.32-1-3.21-2.65-3.21s-2.65.89-2.65,3.21Z" transform="translate(-1.44)"/><path class="cls-1" d="M47.19,86.24l3.48-23.1h7.12V95.68H53V72.34L49.42,95.68H44.58l-3.81-23v23H36.31V63.14h7.11Z" transform="translate(-1.44)"/><path class="cls-1" d="M60.57,63.14h5.12V95.68H60.57Z" transform="translate(-1.44)"/><path class="cls-1" d="M73,72.11V95.68h-4.6V63.14h6.42L80.1,82.62V63.14h4.56V95.68H79.4Z" transform="translate(-1.44)"/><path class="cls-1" d="M95.07,77.55h7.16V87.87c0,5.21-2.6,8.18-7.63,8.18S87,93.08,87,87.87V71c0-5.21,2.6-8.19,7.62-8.19s7.63,3,7.63,8.19v3.16H97.39V70.62c0-2.32-1-3.21-2.65-3.21s-2.65.89-2.65,3.21V88.2c0,2.32,1,3.16,2.65,3.16s2.65-.84,2.65-3.16v-6H95.07Z" transform="translate(-1.44)"/><path class="cls-1" d="M117.76,62.76c5,0,7.53,3,7.53,8.19v1h-4.84V70.62c0-2.32-.93-3.21-2.55-3.21s-2.56.89-2.56,3.21c0,6.7,10,7.95,10,17.25,0,5.21-2.6,8.18-7.62,8.18s-7.63-3-7.63-8.18v-2h4.84V88.2c0,2.32,1,3.16,2.65,3.16s2.65-.84,2.65-3.16c0-6.7-10-8-10-17.25C110.22,65.74,112.78,62.76,117.76,62.76Z" transform="translate(-1.44)"/><path class="cls-1" d="M126.91,71c0-5.21,2.75-8.19,7.77-8.19s7.76,3,7.76,8.19V87.87c0,5.21-2.74,8.18-7.76,8.18s-7.77-3-7.77-8.18ZM132,88.2c0,2.32,1,3.2,2.65,3.2s2.65-.88,2.65-3.2V70.62c0-2.32-1-3.21-2.65-3.21S132,68.3,132,70.62Z" transform="translate(-1.44)"/><path class="cls-1" d="M144.39,71c0-5.21,2.75-8.19,7.77-8.19s7.76,3,7.76,8.19V87.87c0,5.21-2.74,8.18-7.76,8.18s-7.77-3-7.77-8.18Zm5.12,17.25c0,2.32,1,3.2,2.65,3.2s2.65-.88,2.65-3.2V70.62c0-2.32-1-3.21-2.65-3.21s-2.65.89-2.65,3.21Z" transform="translate(-1.44)"/><path class="cls-1" d="M166.85,72.11V95.68h-4.6V63.14h6.41l5.25,19.48V63.14h4.56V95.68h-5.25Z" transform="translate(-1.44)"/><path class="cls-1" d="M54.84,48.17c.57,0,.85.07,1.41.13A2.42,2.42,0,0,1,55.68,50,4.36,4.36,0,0,1,51,51.25a2.58,2.58,0,0,1-1.15-4,3.69,3.69,0,0,1,1.76-1.38c.28.42.42.62.71,1a2.37,2.37,0,0,0-1.07.79A1.44,1.44,0,0,0,51.74,50a2.37,2.37,0,0,0,2.79-.8A1.56,1.56,0,0,0,54.84,48.17Z" transform="translate(-1.44)"/><path class="cls-1" d="M53.27,43A3.59,3.59,0,0,1,58,42.65c1.42,1.05,1.71,2.62.69,3.73a3.86,3.86,0,0,1-4.59.5A2.41,2.41,0,0,1,53.27,43Zm4.22,2.67c.68-.73.22-1.53-.53-2a1.92,1.92,0,0,0-2.55.09c-.72.77-.24,1.62.55,2.08A2,2,0,0,0,57.49,45.66Z" transform="translate(-1.44)"/><path class="cls-1" d="M61.3,39.09l0,0c.64,1.24,1,1.85,1.69,3l-.54.44c-1.39-.64-2.09-1-3.54-1.53l0,0c1,1,1.54,1.45,2.58,2.4-.36.31-.53.47-.88.8-1.79-1.58-2.68-2.37-4.43-4,.43-.4.65-.6,1.09-1,1.47.53,2.19.81,3.6,1.41-.65-1.22-1-1.83-1.53-3.09.46-.35.69-.53,1.16-.87,1.83,1.55,2.74,2.33,4.52,3.91l-.94.68C63,40.45,62.4,40,61.3,39.09Z" transform="translate(-1.44)"/><path class="cls-1" d="M66.32,39.78l-1,.64-4-4.27,1.12-.74C64,37.15,64.77,38,66.32,39.78Z" transform="translate(-1.44)"/><path class="cls-1" d="M67.92,38.79l-1,.59L63.18,35c.46-.29.69-.43,1.15-.7,1.7.66,2.52,1,4.1,1.79h0l-2-2.92,1.2-.6,3.12,4.79-1,.51a40.31,40.31,0,0,0-4-1.85h0Z" transform="translate(-1.44)"/><path class="cls-1" d="M74.77,33.58a2.16,2.16,0,0,1-1.32,2.64,3.32,3.32,0,0,1-3.81-1.53,2.37,2.37,0,0,1,1-3.64,2.89,2.89,0,0,1,2.52.09c-.17.44-.25.67-.4,1.11a1.54,1.54,0,0,0-1.5-.2,1.39,1.39,0,0,0-.44,2.09,1.86,1.86,0,0,0,2.09,1,1,1,0,0,0,.57-1.37l-1.15.43-.46-.87c.93-.38,1.41-.55,2.36-.87Z" transform="translate(-1.44)"/><path class="cls-1" d="M79.45,29c-.1.43-.15.64-.24,1.08A2.39,2.39,0,0,0,78,30c-.43.1-.59.35-.49.64s.67.37,1.36.5a1.91,1.91,0,0,1,1.62,1.2,1.59,1.59,0,0,1-1.37,2.12,3.26,3.26,0,0,1-2.06-.21c.06-.46.1-.7.18-1.16a2.89,2.89,0,0,0,1.44.28c.24-.06.71-.2.56-.69s-.72-.45-1.44-.6A1.93,1.93,0,0,1,76.31,31a1.58,1.58,0,0,1,1.25-2.07A3.27,3.27,0,0,1,79.45,29Z" transform="translate(-1.44)"/><path class="cls-1" d="M82.73,28a2.81,2.81,0,0,1,3.17,2.54,2.69,2.69,0,0,1-2.21,3.09,3,3,0,0,1-3.16-2.4A2.57,2.57,0,0,1,82.73,28Zm.76,4.43c.92-.12,1.2-1,1.09-1.78a1.5,1.5,0,0,0-1.65-1.46A1.37,1.37,0,0,0,81.84,31C82,31.76,82.54,32.5,83.49,32.38Z" transform="translate(-1.44)"/><path class="cls-1" d="M88.88,27.54a2.68,2.68,0,0,1,2.72,2.9,2.71,2.71,0,1,1-5.41,0A2.68,2.68,0,0,1,88.88,27.54Zm0,4.48c.93,0,1.34-.81,1.37-1.63a1.41,1.41,0,1,0-2.77,0C87.55,31.23,88,32,88.91,32Z" transform="translate(-1.44)"/><path class="cls-1" d="M93,33.31c-.45-.05-.68-.06-1.13-.09.19-2.19.28-3.29.47-5.48.52,0,.79.05,1.31.1a32.81,32.81,0,0,1,1.68,3.63h0c.25-1.35.37-2,.61-3.37.53.07.79.11,1.31.2l-1.18,5.4c-.44-.08-.67-.11-1.12-.17a31.43,31.43,0,0,0-1.54-3.62h0Z" transform="translate(-1.44)"/><path class="cls-1" d="M99.31,28.67c1.59.33,2.39.53,4,1l-.41,1-1.29-.36c-.6,1.68-.89,2.52-1.48,4.2L99,34.27c.53-1.7.8-2.55,1.33-4.24L99,29.74Z" transform="translate(-1.44)"/><path class="cls-1" d="M102.69,35.32,101.61,35c.85-2.08,1.27-3.11,2.11-5.19l1.27.41c-.37.81-.55,1.22-.92,2,.67.23,1,.34,1.67.59l1-2c.49.18.74.28,1.23.48l-2.72,5-1.06-.42,1-2c-.64-.24-1-.36-1.62-.57Z" transform="translate(-1.44)"/><path class="cls-1" d="M107,37l-1-.46c1.14-2,1.71-3,2.84-4.92l1.22.54Z" transform="translate(-1.44)"/><path class="cls-1" d="M113.87,34.7l-1.11.56a1.92,1.92,0,0,0-.76-.87c-.39-.21-.72-.16-.9.1s.15.69.54,1.22a1.55,1.55,0,0,1,.13,1.87,2.1,2.1,0,0,1-2.83.53,2.58,2.58,0,0,1-1.27-1.48L108.8,36a2.18,2.18,0,0,0,.77,1.12.72.72,0,0,0,1-.1c.25-.34-.13-.77-.51-1.34A1.49,1.49,0,0,1,110,34a2.07,2.07,0,0,1,2.67-.59A2.82,2.82,0,0,1,113.87,34.7Z" transform="translate(-1.44)"/><path class="cls-1" d="M116.76,36c-.1.82-.16,1.23-.31,2.05.92-.26,1.38-.38,2.33-.6.52.39.78.59,1.29,1-1.68.31-2.49.49-4.07.92l-1.9,1.85c-.37-.28-.56-.41-.94-.68l1.82-1.9a29.26,29.26,0,0,0,.42-3.54C116,35.46,116.22,35.64,116.76,36Z" transform="translate(-1.44)"/><path class="cls-1" d="M121.85,41.61c-.59-.56-.89-.83-1.5-1.36l-.92.75c.56.49.84.75,1.39,1.27l-1,.71c-.54-.5-.81-.75-1.35-1.22l-.94.76c.56.48.83.73,1.36,1.24l-1,.71c-.86-.82-1.31-1.21-2.21-2l4.49-3.9c1.07.87,1.58,1.33,2.59,2.29Z" transform="translate(-1.44)"/><path class="cls-1" d="M121.68,48.55c-.33-.41-.49-.61-.83-1,.33-.36.49-.54.81-.91-.55-.63-.83-.94-1.4-1.54-.52.16-.78.23-1.29.4-.36-.37-.54-.55-.9-.9a56.86,56.86,0,0,1,6.62-1.81c.36.38.53.57.88,1A45.17,45.17,0,0,1,121.68,48.55Zm1.85-4.28h0c-.79.18-1.17.27-1.94.48.34.37.52.55.85.93C122.88,45.12,123.1,44.84,123.53,44.27Z" transform="translate(-1.44)"/><path class="cls-1" d="M128.69,47.65c.68,1,.58,2-.58,2.42a2.36,2.36,0,0,1-2.37-.32,27,27,0,0,1-1.36,2.62c-.34-.55-.51-.81-.87-1.33a26.48,26.48,0,0,0,1.27-2.42l-2.23,1.07c-.29-.4-.44-.59-.74-1l5.52-2.86C127.89,46.56,128.16,46.92,128.69,47.65Zm-2.9.66c.3.41.69.9,1.41.58s.39-.85.07-1.28l-.1-.13-1.47.71Z" transform="translate(-1.44)"/><polygon class="cls-1" points="88.7 113.72 91.23 118.64 96.7 119.54 92.8 123.47 93.64 128.94 88.7 126.45 83.76 128.94 84.6 123.47 80.7 119.54 86.16 118.64 88.7 113.72"/><polygon class="cls-1" points="65.52 108.33 68.05 113.25 73.52 114.14 69.62 118.08 70.46 123.55 65.52 121.06 60.57 123.55 61.41 118.08 57.52 114.14 62.98 113.25 65.52 108.33"/><polygon class="cls-1" points="111.25 108.33 113.78 113.25 119.25 114.14 115.35 118.08 116.19 123.55 111.25 121.06 106.31 123.55 107.15 118.08 103.25 114.14 108.72 113.25 111.25 108.33"/><line class="cls-2" x1="0.12" y1="55.64" x2="174.8" y2="55.64"/><line class="cls-2" x1="0.12" y1="103.09" x2="174.8" y2="103.09"/></g></g></svg>