<svg id="OBJECTS" xmlns="http://www.w3.org/2000/svg" viewBox="0 0 200.26 164.42"><defs><style>.cls-1{fill:#2b292a;}</style></defs><title>dashboard_01</title><path class="cls-1" d="M89.19,400.5v-25H95a13.47,13.47,0,0,1,3.78.45,5.35,5.35,0,0,1,2.44,1.43,5.55,5.55,0,0,1,1.3,2.4,13.65,13.65,0,0,1,.38,3.5v9a14.47,14.47,0,0,1-.39,3.63,6.23,6.23,0,0,1-1.29,2.53A5.22,5.22,0,0,1,98.84,400a11.85,11.85,0,0,1-3.66.49h-6Zm4.55-3.19H95a5.24,5.24,0,0,0,1.19-.12,4.31,4.31,0,0,0,.86-0.29,1.39,1.39,0,0,0,.58-0.54,4.13,4.13,0,0,0,.35-0.69,3.89,3.89,0,0,0,.18-1q0.06-.64.08-1.09t0-1.34v-9.12q0-.89,0-1.43a7.43,7.43,0,0,0-.14-1.09,2.21,2.21,0,0,0-.33-0.85,2.35,2.35,0,0,0-.58-0.55,2.3,2.3,0,0,0-.9-0.35,7.53,7.53,0,0,0-1.31-.1H93.73v18.52Z" transform="translate(-63.43 -309.38)"/><path class="cls-1" d="M104.6,400.5l5.07-25h4.74l5.06,25h-4.23l-1-5.8h-4.32l-1,5.8H104.6Zm5.8-8.76h3.34l-1.67-10.25Z" transform="translate(-63.43 -309.38)"/><path class="cls-1" d="M128.23,400.8q-6.6,0-6.93-7.62l4-.83q0.15,5,2.83,5a1.85,1.85,0,0,0,1.54-.63,2.65,2.65,0,0,0,.5-1.7,4.73,4.73,0,0,0-.38-1.9,5.18,5.18,0,0,0-.87-1.42,18.53,18.53,0,0,0-1.42-1.36l-3.28-2.85a9.16,9.16,0,0,1-2.15-2.63,7.35,7.35,0,0,1-.71-3.41,5.91,5.91,0,0,1,1.71-4.52,6.67,6.67,0,0,1,4.69-1.64,7.36,7.36,0,0,1,2.42.34,5.09,5.09,0,0,1,1.74.95A5,5,0,0,1,133,378a8,8,0,0,1,.69,1.84A14,14,0,0,1,134,382l-3.89.77q0-.75-0.1-1.31a7.23,7.23,0,0,0-.23-1.13,2.91,2.91,0,0,0-.43-0.93,1.86,1.86,0,0,0-.71-0.56,2,2,0,0,0-1-.17,2.12,2.12,0,0,0-1.54.67,2.39,2.39,0,0,0-.53,1.63,3.74,3.74,0,0,0,.47,2,7.62,7.62,0,0,0,1.48,1.66l3.25,2.83a17.13,17.13,0,0,1,1.42,1.43,12.13,12.13,0,0,1,1.15,1.58,7.27,7.27,0,0,1,.84,2,8.72,8.72,0,0,1,.29,2.26,6,6,0,0,1-1.72,4.43A6.16,6.16,0,0,1,128.23,400.8Z" transform="translate(-63.43 -309.38)"/><path class="cls-1" d="M137.19,400.5v-25h4.55V386h5.07V375.54h4.55v25h-4.55V389.21h-5.07V400.5h-4.55Z" transform="translate(-63.43 -309.38)"/><path class="cls-1" d="M155.14,400.5v-25h6.11a13.07,13.07,0,0,1,3,.31,6.51,6.51,0,0,1,2.29,1,4.39,4.39,0,0,1,1.51,2,8,8,0,0,1,.5,3.06q0,4.62-3.67,5.17A5,5,0,0,1,168.2,389a7.25,7.25,0,0,1,1.11,4.25,7.4,7.4,0,0,1-1.78,5.4,7,7,0,0,1-5.22,1.84h-7.17Zm4.55-14.79h1.42a3.56,3.56,0,0,0,2.76-.86,4.38,4.38,0,0,0,.75-2.89,4.9,4.9,0,0,0-.25-1.71,1.84,1.84,0,0,0-.84-1,3.74,3.74,0,0,0-1.3-.44,13.72,13.72,0,0,0-1.9-.11h-0.63v7Zm0,11.58h1.67a3.5,3.5,0,0,0,2.82-.95,6.59,6.59,0,0,0-.1-6.41,3.74,3.74,0,0,0-3-1h-1.43v8.37Z" transform="translate(-63.43 -309.38)"/><path class="cls-1" d="M179,400.8q-3.85,0-5.53-2.09t-1.67-6.13v-9.21a13.93,13.93,0,0,1,.38-3.45,6.82,6.82,0,0,1,1.21-2.53,5,5,0,0,1,2.24-1.6,9.47,9.47,0,0,1,3.37-.53q3.84,0,5.52,2.06t1.68,6.05v9.21a13.81,13.81,0,0,1-.38,3.44,7.11,7.11,0,0,1-1.22,2.57,5.13,5.13,0,0,1-2.24,1.65A9.09,9.09,0,0,1,179,400.8Zm-1.14-3.57a3,3,0,0,0,1.14.2,2.91,2.91,0,0,0,1.13-.2,2,2,0,0,0,.75-0.51,2.23,2.23,0,0,0,.44-0.83,5.3,5.3,0,0,0,.21-1,12.12,12.12,0,0,0,.05-1.22V382.31a10.45,10.45,0,0,0-.09-1.51,3.84,3.84,0,0,0-.35-1.14,1.72,1.72,0,0,0-.79-0.8,3,3,0,0,0-1.34-.26,3,3,0,0,0-1.35.26,1.67,1.67,0,0,0-.79.8,4,4,0,0,0-.35,1.14,10.37,10.37,0,0,0-.09,1.51v11.34a12.12,12.12,0,0,0,.05,1.22,5.3,5.3,0,0,0,.21,1,2.3,2.3,0,0,0,.43.83A1.93,1.93,0,0,0,177.91,397.23Z" transform="translate(-63.43 -309.38)"/><path class="cls-1" d="M188.28,400.5l5.07-25h4.74l5.06,25h-4.23l-1-5.8h-4.32l-1,5.8h-4.29Zm5.8-8.76h3.34l-1.67-10.25Z" transform="translate(-63.43 -309.38)"/><path class="cls-1" d="M205.61,400.5v-25h5.72a15.39,15.39,0,0,1,3.39.32,6.67,6.67,0,0,1,2.46,1.08,4.58,4.58,0,0,1,1.57,2.06,8.62,8.62,0,0,1,.52,3.18,9.07,9.07,0,0,1-.7,3.84,4.28,4.28,0,0,1-2.31,2.17l3.46,12.3h-4.56l-3-11.4h-2v11.4h-4.55Zm4.55-14.3h1.1a3.94,3.94,0,0,0,2.87-.86,4.1,4.1,0,0,0,.85-2.94,4.42,4.42,0,0,0-.74-2.87,3.44,3.44,0,0,0-2.71-.87h-1.37v7.53Z" transform="translate(-63.43 -309.38)"/><path class="cls-1" d="M222.72,400.5v-25h5.81a13.47,13.47,0,0,1,3.78.45,5.35,5.35,0,0,1,2.44,1.43,5.55,5.55,0,0,1,1.3,2.4,13.65,13.65,0,0,1,.38,3.5v9A14.47,14.47,0,0,1,236,396a6.23,6.23,0,0,1-1.29,2.53,5.22,5.22,0,0,1-2.39,1.53,11.85,11.85,0,0,1-3.66.49h-6Zm4.55-3.19h1.29a5.24,5.24,0,0,0,1.19-.12,4.31,4.31,0,0,0,.86-0.29,1.39,1.39,0,0,0,.58-0.54,4.13,4.13,0,0,0,.35-0.69,3.89,3.89,0,0,0,.18-1q0.06-.64.08-1.09t0-1.34v-9.12q0-.89,0-1.43a7.43,7.43,0,0,0-.14-1.09,2.21,2.21,0,0,0-.33-0.85,2.35,2.35,0,0,0-.58-0.55,2.3,2.3,0,0,0-.9-0.35,7.53,7.53,0,0,0-1.31-.1h-1.25v18.52Z" transform="translate(-63.43 -309.38)"/><path class="cls-1" d="M127.25,423.73h0.85v3.21A4.64,4.64,0,0,1,125,428a4.28,4.28,0,1,1,0-8.56,4.15,4.15,0,0,1,3.13,1.21l-0.55.57a3.55,3.55,0,1,0-2.55,6,3.64,3.64,0,0,0,2.2-.65v-2.84Z" transform="translate(-63.43 -309.38)"/><path class="cls-1" d="M130.54,424.34v-4.82h0.89v4.79c0,2,.94,2.91,2.57,2.91s2.58-.91,2.58-2.91v-4.79h0.87v4.82c0,2.42-1.3,3.67-3.45,3.67S130.54,426.76,130.54,424.34Z" transform="translate(-63.43 -309.38)"/><path class="cls-1" d="M145.23,425.69h-4.69l-1,2.25H138.6l3.85-8.42h0.88l3.85,8.42h-0.94ZM144.9,425l-2-4.52-2,4.52h4Z" transform="translate(-63.43 -309.38)"/><path class="cls-1" d="M154.31,427.94l-1.92-2.71a6.14,6.14,0,0,1-.67,0h-2.26v2.67h-0.89v-8.42h3.15c2.14,0,3.44,1.08,3.44,2.89a2.61,2.61,0,0,1-1.92,2.65l2.06,2.89h-1Zm0-5.53c0-1.35-.89-2.12-2.57-2.12h-2.24v4.22h2.24C153.38,424.51,154.26,423.73,154.26,422.41Z" transform="translate(-63.43 -309.38)"/><path class="cls-1" d="M162.53,425.69h-4.69l-1,2.25h-0.93l3.85-8.42h0.88l3.85,8.42h-0.94Zm-0.32-.72-2-4.52-2,4.52h4Z" transform="translate(-63.43 -309.38)"/><path class="cls-1" d="M172.9,419.52v8.42h-0.73l-5.41-6.83v6.83h-0.89v-8.42h0.73l5.42,6.83v-6.83h0.88Z" transform="translate(-63.43 -309.38)"/><path class="cls-1" d="M177.28,420.29h-3v-0.77h6.81v0.77h-3v7.65h-0.89v-7.65Z" transform="translate(-63.43 -309.38)"/><path class="cls-1" d="M188.49,427.17v0.77h-6v-8.42h5.77v0.77h-4.88v3h4.35V424h-4.35v3.13h5.06Z" transform="translate(-63.43 -309.38)"/><path class="cls-1" d="M196.53,427.17v0.77h-6v-8.42h5.77v0.77h-4.88v3h4.35V424h-4.35v3.13h5.06Z" transform="translate(-63.43 -309.38)"/><path class="cls-1" d="M198.62,419.52H202c2.69,0,4.51,1.73,4.51,4.21s-1.82,4.21-4.51,4.21h-3.43v-8.42Zm3.38,7.65a3.45,3.45,0,1,0,0-6.88h-2.49v6.88H202Z" transform="translate(-63.43 -309.38)"/><path class="cls-1" d="M95.44,426.48a75.54,75.54,0,0,0,4,7.58,78.27,78.27,0,0,0,26.3,26.1,98.58,98.58,0,0,0,38.16,13.63l0.18,0,0.18,0A93.29,93.29,0,0,0,200.54,460a76.74,76.74,0,0,0,25-25.71,75.34,75.34,0,0,0,4-7.84h34.19l-2.3-18.95,2.29-21.39H252.06V365.43H236.84v-39.7a16.36,16.36,0,0,0-16.34-16.34H103.86a16.36,16.36,0,0,0-16.34,16.34v39.7H72.3v20.72H63.45l2.29,21.39-2.3,18.95h32ZM72.3,388.15v23.17H90.24a83,83,0,0,0,4.33,13.15H65.7l2-16.81v-0.11l-2.07-19.39H72.3Zm2-2V367.44H250.05v41.87H74.3V386.14ZM91,325.72a12.91,12.91,0,0,1,12.9-12.9H220.5a12.91,12.91,0,0,1,12.9,12.9v39.7h-5.6V324.32a6,6,0,0,0-6-6H102.57a6,6,0,0,0-6,6v41.11H91v-39.7Zm134.83,39.7H98.56V324.32a4,4,0,0,1,4-4H221.79a4,4,0,0,1,4,4v41.11Zm33.58,42.12,2.06,16.93H230.35a83.57,83.57,0,0,0,4.09-13.15h17.62V388.15h9.38Zm-33.65,18.93c-1,2.07-2,4.08-3.14,6a73.29,73.29,0,0,1-23.79,24.56,92,92,0,0,1-34.7,13.28,97.37,97.37,0,0,1-36.62-13.18,74.82,74.82,0,0,1-25.1-25c-1.12-1.85-2.14-3.76-3.1-5.72l-0.48-1-0.46-1a78.72,78.72,0,0,1-4.54-13.15h5.76a71.69,71.69,0,0,0,4.92,13.15c0.17,0.33.32,0.67,0.49,1s0.36,0.67.54,1A68.35,68.35,0,0,0,130,452.25a93.1,93.1,0,0,0,33.93,12.61l0.16,0,0.16,0a87.82,87.82,0,0,0,32-12.65,66.89,66.89,0,0,0,23.37-25.74l0.5-1,0.48-1a72.15,72.15,0,0,0,4.64-13.15h5.72a79.23,79.23,0,0,1-4.29,13.15c-0.14.33-.28,0.67-0.43,1S225.87,426.14,225.71,426.48ZM218,425.14c-0.23.45-.46,0.9-0.69,1.34a65,65,0,0,1-22.2,24.06,85.77,85.77,0,0,1-31,12.32,91,91,0,0,1-33-12.3,66.54,66.54,0,0,1-23.26-24.07c-0.18-.33-0.36-0.67-0.54-1s-0.36-.67-0.54-1a69.32,69.32,0,0,1-5.08-13.15H223.1A70.34,70.34,0,0,1,219,423Q218.5,424.1,218,425.14Z" transform="translate(-63.43 -309.38)"/><rect class="cls-1" x="174.75" y="60.79" width="2.58" height="0.86"/><rect class="cls-1" x="183.03" y="62.84" width="0.86" height="2.58"/><rect class="cls-1" x="183.03" y="73.17" width="0.86" height="2.58"/><rect class="cls-1" x="183.03" y="68.01" width="0.86" height="2.58"/><rect class="cls-1" x="179.92" y="60.79" width="2.58" height="0.86"/><rect class="cls-1" x="19.8" y="60.79" width="2.58" height="0.86"/><rect class="cls-1" x="13.6" y="68.36" width="0.86" height="2.58"/><rect class="cls-1" x="13.6" y="73.52" width="0.86" height="2.58"/><rect class="cls-1" x="14.64" y="60.79" width="2.58" height="0.86"/><rect class="cls-1" x="13.6" y="63.19" width="0.86" height="2.58"/><rect class="cls-1" x="18.53" y="96.34" width="2.58" height="0.86"/><polygon class="cls-1" points="14.46 78.77 14.46 78.69 13.6 78.69 13.6 78.77 13.6 81.27 14.46 81.27 14.46 78.77"/><rect class="cls-1" x="13.6" y="83.85" width="0.86" height="2.58"/><rect class="cls-1" x="13.6" y="89.02" width="0.86" height="2.58"/><polygon class="cls-1" points="15.94 96.34 14.46 96.34 14.46 94.19 13.6 94.19 13.6 97.2 15.94 97.2 15.94 96.34"/><rect class="cls-1" x="183.03" y="88.67" width="0.86" height="2.58"/><polygon class="cls-1" points="183.89 78.77 183.89 78.34 183.03 78.34 183.03 78.77 183.03 80.92 183.89 80.92 183.89 78.77"/><rect class="cls-1" x="173.48" y="96.34" width="2.58" height="0.86"/><rect class="cls-1" x="183.03" y="83.5" width="0.86" height="2.58"/><rect class="cls-1" x="178.64" y="96.34" width="2.58" height="0.86"/><rect class="cls-1" x="183.03" y="93.83" width="0.86" height="2.58"/><rect class="cls-1" x="164.42" y="60.79" width="2.58" height="0.86"/><rect class="cls-1" x="30.13" y="60.79" width="2.58" height="0.86"/><polygon class="cls-1" points="31.44 97.2 31.44 96.34 29.13 96.34 28.86 96.34 28.86 97.2 29.3 97.2 31.44 97.2"/><rect class="cls-1" x="163.15" y="96.34" width="2.58" height="0.86"/><polygon class="cls-1" points="26.27 97.2 26.27 96.34 25.64 96.34 23.69 96.34 23.69 97.2 25.79 97.2 26.27 97.2"/><polygon class="cls-1" points="171.68 61.65 172.17 61.65 172.17 60.79 171.68 60.79 169.96 60.79 169.59 60.79 169.59 61.65 169.96 61.65 171.68 61.65"/><polygon class="cls-1" points="27.53 61.65 27.55 61.65 27.55 60.79 27.53 60.79 25.8 60.79 24.97 60.79 24.97 61.65 25.8 61.65 27.53 61.65"/><polygon class="cls-1" points="170.2 97.2 170.89 97.2 170.89 96.34 170.35 96.34 168.59 96.34 168.31 96.34 168.31 97.2 168.45 97.2 170.2 97.2"/><rect class="cls-1" x="86.95" y="60.79" width="2.58" height="0.86"/><rect class="cls-1" x="92.11" y="60.79" width="2.58" height="0.86"/><rect class="cls-1" x="90.84" y="96.34" width="2.58" height="0.86"/><rect class="cls-1" x="85.67" y="96.34" width="2.58" height="0.86"/><rect class="cls-1" x="81.78" y="60.79" width="2.58" height="0.86"/><rect class="cls-1" x="80.51" y="96.34" width="2.58" height="0.86"/><rect class="cls-1" x="112.77" y="60.79" width="2.58" height="0.86"/><rect class="cls-1" x="96" y="96.34" width="2.58" height="0.86"/><rect class="cls-1" x="106.33" y="96.34" width="2.58" height="0.86"/><rect class="cls-1" x="111.5" y="96.34" width="2.58" height="0.86"/><rect class="cls-1" x="107.61" y="60.79" width="2.58" height="0.86"/><rect class="cls-1" x="116.66" y="96.34" width="2.58" height="0.86"/><rect class="cls-1" x="97.28" y="60.79" width="2.58" height="0.86"/><rect class="cls-1" x="101.17" y="96.34" width="2.58" height="0.86"/><rect class="cls-1" x="102.44" y="60.79" width="2.58" height="0.86"/><rect class="cls-1" x="59.85" y="96.34" width="2.58" height="0.86"/><rect class="cls-1" x="54.68" y="96.34" width="2.58" height="0.86"/><rect class="cls-1" x="49.52" y="96.34" width="2.58" height="0.86"/><rect class="cls-1" x="50.79" y="60.79" width="2.58" height="0.86"/><rect class="cls-1" x="76.62" y="60.79" width="2.58" height="0.86"/><rect class="cls-1" x="45.63" y="60.79" width="2.58" height="0.86"/><rect class="cls-1" x="40.46" y="60.79" width="2.58" height="0.86"/><rect class="cls-1" x="35.3" y="60.79" width="2.58" height="0.86"/><rect class="cls-1" x="70.18" y="96.34" width="2.58" height="0.86"/><rect class="cls-1" x="71.45" y="60.79" width="2.58" height="0.86"/><rect class="cls-1" x="75.34" y="96.34" width="2.58" height="0.86"/><rect class="cls-1" x="66.29" y="60.79" width="2.58" height="0.86"/><rect class="cls-1" x="61.12" y="60.79" width="2.58" height="0.86"/><rect class="cls-1" x="65.01" y="96.34" width="2.58" height="0.86"/><rect class="cls-1" x="55.96" y="60.79" width="2.58" height="0.86"/><rect class="cls-1" x="147.65" y="96.34" width="2.58" height="0.86"/><rect class="cls-1" x="148.93" y="60.79" width="2.58" height="0.86"/><rect class="cls-1" x="154.09" y="60.79" width="2.58" height="0.86"/><rect class="cls-1" x="117.94" y="60.79" width="2.58" height="0.86"/><rect class="cls-1" x="142.49" y="96.34" width="2.58" height="0.86"/><rect class="cls-1" x="159.26" y="60.79" width="2.58" height="0.86"/><rect class="cls-1" x="143.76" y="60.79" width="2.58" height="0.86"/><rect class="cls-1" x="121.83" y="96.34" width="2.58" height="0.86"/><rect class="cls-1" x="128.27" y="60.79" width="2.58" height="0.86"/><rect class="cls-1" x="126.99" y="96.34" width="2.58" height="0.86"/><rect class="cls-1" x="123.1" y="60.79" width="2.58" height="0.86"/><rect class="cls-1" x="138.6" y="60.79" width="2.58" height="0.86"/><rect class="cls-1" x="133.43" y="60.79" width="2.58" height="0.86"/><rect class="cls-1" x="132.16" y="96.34" width="2.58" height="0.86"/><rect class="cls-1" x="137.32" y="96.34" width="2.58" height="0.86"/><rect class="cls-1" x="39.19" y="96.34" width="2.58" height="0.86"/><polygon class="cls-1" points="45.71 97.2 46.71 97.2 46.93 97.2 46.93 96.34 46.71 96.34 45.71 96.34 44.7 96.34 44.35 96.34 44.35 97.2 44.7 97.2 45.71 97.2"/><rect class="cls-1" x="157.98" y="96.34" width="2.58" height="0.86"/><polygon class="cls-1" points="154.55 97.2 155.4 97.2 155.4 96.34 154.55 96.34 153.55 96.34 152.82 96.34 152.82 97.2 153.55 97.2 154.55 97.2"/><polygon class="cls-1" points="36.02 97.2 36.6 97.2 36.6 96.34 35.84 96.34 34.81 96.34 34.02 96.34 34.02 97.2 34.99 97.2 36.02 97.2"/><polygon class="cls-1" points="102.58 133.27 100.13 128.31 97.68 133.27 92.2 134.07 96.17 137.93 95.23 143.38 100.13 140.81 105.03 143.38 104.09 137.93 108.05 134.07 102.58 133.27"/><path class="cls-1" d="M166.57,334.48a6.7,6.7,0,0,1-1.68.72,12.32,12.32,0,0,1-7.08,0,6.7,6.7,0,0,1-1.68-.72c-1.81-1.18-13.42-6.35-37.64-2.27v7.07s2.9-.91,3.54,3,2.09,16.69,12,17c0,0,9,.36,10.88,0s8.71-1.9,11.34-12.33a14.92,14.92,0,0,1,1.79-4.24,4,4,0,0,1,6.68,0,14.92,14.92,0,0,1,1.79,4.24c2.63,10.43,9.43,12,11.34,12.33s10.88,0,10.88,0c9.89-.27,11.34-13.06,12-17s3.54-3,3.54-3v-7.07C180,328.13,168.38,333.3,166.57,334.48Zm-13.44,11.77c-2.31,6-5,8.9-8.89,9.65a23.42,23.42,0,0,1-3,.1c-3.12,0-7-.16-7.08-0.16h0c-3.55-.1-5.19-2.54-6.23-4.65a23,23,0,0,1-1.72-5.15v0l0,0a12.59,12.59,0,0,1-.62-2.92,8.34,8.34,0,0,1,1.16-5.41c1.55-2.27,4.57-3.47,9-3.55h1.16A47.42,47.42,0,0,1,150.95,336a4.52,4.52,0,0,1,3.17,4.41A17.57,17.57,0,0,1,153.13,346.26Zm42.9-8.64a8.34,8.34,0,0,1,1.16,5.41,12.59,12.59,0,0,1-.62,2.92l0,0v0a23,23,0,0,1-1.72,5.15c-1,2.11-2.68,4.55-6.23,4.65h0s-4,.16-7.08.16a23.42,23.42,0,0,1-3-.1c-3.92-.75-6.58-3.63-8.89-9.65a17.56,17.56,0,0,1-1-5.83,4.52,4.52,0,0,1,3.17-4.41,47.42,47.42,0,0,1,14.13-1.95H187C191.46,334.15,194.48,335.35,196,337.62Z" transform="translate(-63.43 -309.38)"/></svg>