<svg id="OBJECTS" xmlns="http://www.w3.org/2000/svg" viewBox="0 0 203.32 193.93"><defs><style>.cls-1{fill:#2b292a;}.cls-2{fill:#fff;}</style></defs><title>blog_01</title><path class="cls-1" d="M718.13,595.57V578.4l-83.11-48-0.86-.5-84,48.48v17.17c-5.33.42-10.65,0.87-16,1.37l-1.71.16,5.68,60.14,1.71-.16q5.14-.49,10.28-0.91v19.2l83.11,48,0.86,0.5,84-48.48v-19.2q5.14,0.43,10.28.91l1.71,0.16,5.68-60.14-1.71-.16C728.78,596.44,723.46,596,718.13,595.57ZM562.27,585.38l71.88-41.5L706,585.38v9.29a1065.81,1065.81,0,0,0-143.76,0v-9.29Zm72.38-43.53-0.5-.29-73.89,42.66v10.58c-2.22.15-4.43,0.33-6.64,0.5V580.39l80.53-46.5,80.53,46.5V595.3c-2.21-.17-4.43-0.34-6.64-0.5V584.22Zm80,131.53-80.53,46.5-80.53-46.5V655.89l6.64-.51v14.16l73.39,42.37,0.5,0.29L708,669.54V655.38l6.64,0.51v17.49Zm-7.65-18h-1v13l-71.88,41.5-71.88-41.5v-13h-1.83l0.83-.06,1-.08a1005,1005,0,0,1,143.76,0l1,0.08,0.83,0.06H707Zm21.54-18.29L727,653.49c-3-.27-5.93-0.52-8.89-0.77l-1.72-.15-1.72-.14c-2.21-.18-4.43-0.34-6.64-0.5l-1-.08-1-.08q-35.84-2.56-71.88-2.58t-71.88,2.58l-1,.08-1,.08c-2.21.16-4.43,0.32-6.64,0.5l-1.72.14-1.72.15c-3,.25-5.93.5-8.89,0.77l-1.55-16.42-3.48-36.87,3.48-.3q5.22-.47,10.45-0.89l1.72-.13,1.72-.13,4.73-.36,1.92-.14v0.14h2v-0.28a1062.47,1062.47,0,0,1,143.76,0v0.28h2v-0.14L710,598.4l4.73,0.36,1.72,0.13,1.72,0.13q5.23,0.42,10.45.89l3.48,0.3Z" transform="translate(-532.49 -529.92)"/><polygon class="cls-1" points="120.94 49.02 103.6 23.97 101.66 21.17 99.72 23.97 82.38 49.02 85.97 58.4 117.34 58.4 120.94 49.02"/><polygon class="cls-1" points="68.65 47.62 66.78 43.83 64.91 47.62 60.72 48.23 63.75 51.18 63.04 55.34 66.78 53.38 70.52 55.34 69.81 51.18 72.83 48.23 68.65 47.62"/><polygon class="cls-1" points="132.8 55.34 136.54 53.38 140.28 55.34 139.56 51.18 142.59 48.23 138.41 47.62 136.54 43.83 134.67 47.62 130.48 48.23 133.51 51.18 132.8 55.34"/><polygon class="cls-1" points="22.26 90.39 21.13 91.52 19.4 93.24 17.68 94.96 16.24 96.4 17.68 97.84 19.4 99.56 21.13 101.28 22.26 102.42 27.77 96.9 28.27 96.4 27.77 95.9 22.26 90.39"/><polygon class="cls-1" points="183.91 94.1 182.19 92.38 180.19 90.39 175.55 95.03 174.54 96.03 174.18 96.4 174.54 96.76 175.55 97.77 180.19 102.42 182.19 100.42 183.91 98.7 185.63 96.97 186.21 96.4 185.63 95.83 183.91 94.1"/><path class="cls-1" d="M583.08,645.11l-4-41.86q5.54-.52,11.08-0.94a24.51,24.51,0,0,1,5.51.13A12,12,0,0,1,600,603.9a7.39,7.39,0,0,1,2.92,3.18,12.6,12.6,0,0,1,1.16,5.09c0.25,5.19-1.76,8.18-6,9.06a8.77,8.77,0,0,1,6,2.91q2,2.44,2.29,7.06c0.22,4-.65,7.06-2.55,9.24s-4.78,3.39-8.63,3.67Q589.11,644.54,583.08,645.11Zm5.66-25.49,2.49-.19c2.35-.18,3.93-0.77,4.76-1.79s1.16-2.67,1-4.95a7.78,7.78,0,0,0-.63-2.84,3.15,3.15,0,0,0-1.61-1.56,7,7,0,0,0-2.39-.57,25.25,25.25,0,0,0-3.44.08l-1.14.09Zm1.56,19.44,2.84-.22c2.3-.17,3.86-0.81,4.68-1.93s1.16-2.9,1-5.35-0.79-4.33-1.88-5.41-2.86-1.52-5.28-1.34l-2.49.19Z" transform="translate(-532.49 -529.92)"/><path class="cls-1" d="M611.92,643.16l-1.73-42q4.13-.17,8.26-0.28l1,36.73q5.09-.14,10.19-0.18l0,5.3Q620.8,642.79,611.92,643.16Z" transform="translate(-532.49 -529.92)"/><path class="cls-1" d="M644.74,643.3c-4.33-.08-7.42-1.27-9.31-3.62s-2.85-5.79-2.87-10.32q0-7.76-.05-15.52a22,22,0,0,1,.66-5.81,11,11,0,0,1,2.18-4.26,9,9,0,0,1,4.07-2.68,17.93,17.93,0,0,1,6.14-.82c4.66,0.09,8,1.36,9.91,3.75s2.8,5.83,2.61,10.3l-0.64,15.51a23,23,0,0,1-.9,5.76,12.12,12.12,0,0,1-2.24,4.25,8.85,8.85,0,0,1-3.88,2.65A15.82,15.82,0,0,1,644.74,643.3Zm-1.82-6a5.18,5.18,0,0,0,1.93.36,5.08,5.08,0,0,0,1.93-.29,3.46,3.46,0,0,0,1.29-.83,3.78,3.78,0,0,0,.78-1.38,8.86,8.86,0,0,0,.41-1.71,19.82,19.82,0,0,0,.15-2.05l0.52-19.09a16.53,16.53,0,0,0-.09-2.54,6.13,6.13,0,0,0-.58-1.93,3,3,0,0,0-1.39-1.38,5.67,5.67,0,0,0-2.4-.5,5.75,5.75,0,0,0-2.43.4,2.9,2.9,0,0,0-1.44,1.32,6.37,6.37,0,0,0-.64,1.91,16.65,16.65,0,0,0-.19,2.53l-0.21,19.1a19.82,19.82,0,0,0,.07,2.05,8.79,8.79,0,0,0,.34,1.73,3.89,3.89,0,0,0,.72,1.4A3.32,3.32,0,0,0,642.92,637.26Z" transform="translate(-532.49 -529.92)"/><path class="cls-1" d="M673,644.62c-4-.28-6.75-1.68-8.38-4.26s-2.33-6.23-2.1-11l0.69-13.68a27.93,27.93,0,0,1,.92-6.21,12.39,12.39,0,0,1,2.29-4.49,8.58,8.58,0,0,1,4.15-2.73,16.84,16.84,0,0,1,6.3-.57c4.49,0.33,7.62,1.62,9.38,3.82s2.43,5.37,2,9.49l-0.19,2q-3.85-.36-7.7-0.67l0.17-2.17q0.11-1.39.12-2.28a9,9,0,0,0-.18-1.81,3.1,3.1,0,0,0-.63-1.44,3.59,3.59,0,0,0-1.26-.89,6,6,0,0,0-2-.46,5.68,5.68,0,0,0-1.65.1,4.61,4.61,0,0,0-1.24.45,2.58,2.58,0,0,0-.88.84,5.82,5.82,0,0,0-.59,1.09,7.24,7.24,0,0,0-.36,1.39q-0.15.85-.22,1.51t-0.14,1.69l-1.1,16.93A12.29,12.29,0,0,0,671,637c0.56,1.22,1.72,1.88,3.49,2a4.78,4.78,0,0,0,2.36-.34,3.59,3.59,0,0,0,1.59-1.45,8.38,8.38,0,0,0,.94-2.34,21,21,0,0,0,.49-3.26l0.28-3.44-4.68-.36,0.36-4.93q5.94,0.44,11.88,1l-2,21.26-5-.45q-0.1-2.15-.2-4.29A7.17,7.17,0,0,1,673,644.62Z" transform="translate(-532.49 -529.92)"/><path class="cls-1" d="M588.53,669l0.6-.68a2.42,2.42,0,0,0,2.05,1.17c1.17,0,1.77-.69,1.77-2.1v-5.77h-3.48v-0.87h4.48v6.6c0,2-1,3-2.78,3A3.13,3.13,0,0,1,588.53,669Z" transform="translate(-532.49 -529.92)"/><path class="cls-1" d="M596.88,666.17v-5.46h1v5.42c0,2.26,1.06,3.29,2.91,3.29s2.93-1,2.93-3.29v-5.42h1v5.46c0,2.74-1.47,4.15-3.91,4.15S596.88,668.9,596.88,666.17Z" transform="translate(-532.49 -529.92)"/><path class="cls-1" d="M606.83,669.08l0.39-.78a4.68,4.68,0,0,0,3.14,1.16c1.78,0,2.56-.75,2.56-1.69,0-2.61-5.87-1-5.87-4.53,0-1.4,1.09-2.61,3.51-2.61a5.38,5.38,0,0,1,3,.84l-0.34.8a4.9,4.9,0,0,0-2.61-.79c-1.74,0-2.52.78-2.52,1.73,0,2.61,5.87,1,5.87,4.51,0,1.4-1.12,2.6-3.55,2.6A5.16,5.16,0,0,1,606.83,669.08Z" transform="translate(-532.49 -529.92)"/><path class="cls-1" d="M617.82,661.58h-3.35v-0.87h7.7v0.87h-3.35v8.66h-1v-8.66Z" transform="translate(-532.49 -529.92)"/><path class="cls-1" d="M640.42,660.71l-3.21,9.53h-1.06l-2.79-8.13-2.8,8.13h-1l-3.21-9.53h1l2.75,8.19,2.84-8.19h0.94l2.8,8.23,2.79-8.23h1Z" transform="translate(-532.49 -529.92)"/><path class="cls-1" d="M641.33,665.47a5,5,0,1,1,5,4.85A4.8,4.8,0,0,1,641.33,665.47Zm9,0a4,4,0,1,0-4,3.95A3.86,3.86,0,0,0,650.33,665.47Z" transform="translate(-532.49 -529.92)"/><path class="cls-1" d="M660.09,670.24l-2.18-3.06a6.76,6.76,0,0,1-.76,0H654.6v3h-1v-9.53h3.57c2.42,0,3.89,1.22,3.89,3.27a3,3,0,0,1-2.18,3l2.33,3.27h-1.1ZM660,664c0-1.52-1-2.4-2.91-2.4H654.6v4.78h2.53C659,666.36,660,665.47,660,664Z" transform="translate(-532.49 -529.92)"/><path class="cls-1" d="M666.38,665.76l-1.95,2v2.5h-1v-9.53h1v5.76l5.59-5.76h1.16L667.06,665l4.41,5.21h-1.2Z" transform="translate(-532.49 -529.92)"/><path class="cls-1" d="M672,669.08l0.39-.78a4.68,4.68,0,0,0,3.14,1.16c1.78,0,2.56-.75,2.56-1.69,0-2.61-5.87-1-5.87-4.53,0-1.4,1.09-2.61,3.51-2.61a5.38,5.38,0,0,1,3,.84l-0.34.8a4.9,4.9,0,0,0-2.61-.79c-1.74,0-2.52.78-2.52,1.73,0,2.61,5.87,1,5.87,4.51,0,1.4-1.12,2.6-3.55,2.6A5.16,5.16,0,0,1,672,669.08Z" transform="translate(-532.49 -529.92)"/><path class="cls-1" d="M630.11,684.47v0.64h-4.94v-7H630v0.64h-4.05v2.48h3.61v0.63h-3.61v2.59h4.2Z" transform="translate(-532.49 -529.92)"/><path class="cls-1" d="M631.17,684.26l0.29-.57a3.43,3.43,0,0,0,2.3.85c1.31,0,1.88-.55,1.88-1.24,0-1.92-4.3-.74-4.3-3.32,0-1,.8-1.92,2.57-1.92a4,4,0,0,1,2.17.62l-0.25.59a3.59,3.59,0,0,0-1.92-.58c-1.28,0-1.85.57-1.85,1.27,0,1.92,4.3.76,4.3,3.3,0,1-.82,1.91-2.6,1.91A3.79,3.79,0,0,1,631.17,684.26Z" transform="translate(-532.49 -529.92)"/><path class="cls-1" d="M639.24,678.76h-2.46v-0.64h5.65v0.64H640v6.35h-0.74v-6.35Z" transform="translate(-532.49 -529.92)"/><path class="cls-1" d="M642.68,684.61a0.53,0.53,0,0,1,.53-0.54,0.54,0.54,0,0,1,.54.54,0.54,0.54,0,0,1-.54.55A0.54,0.54,0,0,1,642.68,684.61Z" transform="translate(-532.49 -529.92)"/><path class="cls-1" d="M628.6,696.43v0.64h-4.9v-0.51l2.9-2.84a2.32,2.32,0,0,0,.94-1.73c0-.81-0.57-1.31-1.64-1.31a2.37,2.37,0,0,0-1.91.78l-0.51-.44a3.14,3.14,0,0,1,2.47-1c1.42,0,2.32.72,2.32,1.89a2.87,2.87,0,0,1-1.15,2.19l-2.37,2.33h3.84Z" transform="translate(-532.49 -529.92)"/><path class="cls-1" d="M629.46,693.58c0-2.22,1.17-3.55,2.78-3.55s2.79,1.33,2.79,3.55-1.18,3.55-2.79,3.55S629.46,695.81,629.46,693.58Zm4.84,0c0-1.87-.84-2.89-2.06-2.89s-2.06,1-2.06,2.89,0.84,2.89,2.06,2.89S634.29,695.45,634.29,693.58Z" transform="translate(-532.49 -529.92)"/><path class="cls-1" d="M638,690.09v7h-0.72v-6.35h-1.65v-0.64H638Z" transform="translate(-532.49 -529.92)"/><path class="cls-1" d="M644.57,690.09v0.51l-2.92,6.48h-0.78l2.87-6.35h-3.59V692h-0.71v-1.95h5.13Z" transform="translate(-532.49 -529.92)"/><path class="cls-2" d="M629.28,583.73V565.52h4.46a9.57,9.57,0,0,1,2.2.22,4.74,4.74,0,0,1,1.67.75,3.2,3.2,0,0,1,1.1,1.44,5.83,5.83,0,0,1,.36,2.23q0,3.37-2.68,3.77a3.67,3.67,0,0,1,2.41,1.41,5.28,5.28,0,0,1,.81,3.1,5.4,5.4,0,0,1-1.3,3.94,5.07,5.07,0,0,1-3.81,1.35h-5.23Zm3.32-10.78h1a2.6,2.6,0,0,0,2-.63,3.2,3.2,0,0,0,.55-2.11A3.57,3.57,0,0,0,636,569a1.34,1.34,0,0,0-.61-0.72,2.73,2.73,0,0,0-.95-0.32,10.07,10.07,0,0,0-1.39-.08h-0.46v5.1Zm0,8.45h1.22a2.55,2.55,0,0,0,2.05-.69,4.8,4.8,0,0,0-.07-4.67,2.73,2.73,0,0,0-2.16-.74h-1v6.11Z" transform="translate(-532.49 -529.92)"/></svg>