<svg xmlns="http://www.w3.org/2000/svg" viewBox="0 0 183.07 183.07"><defs><style>.cls-1{fill:#665555;}</style></defs><title>Ресурс 20</title><g id="Слой_2" data-name="Слой 2"><g id="OBJECTS"><path class="cls-1" d="M9.81,97.24,8,98.16a15,15,0,0,0,1.49,2.32c.17.23.34.45.5.68l1.62-1.2-.54-.71A12.88,12.88,0,0,1,9.81,97.24Z"/><path class="cls-1" d="M13.58,102.93l-1.73,1a33.22,33.22,0,0,1,1.54,3l1.83-.83A33.41,33.41,0,0,0,13.58,102.93Z"/><path class="cls-1" d="M16.52,109.37l-1.91.64a32.57,32.57,0,0,1,.91,3.21l2-.44C17.22,111.63,16.89,110.48,16.52,109.37Z"/><path class="cls-1" d="M16.83,72.74l-1.93-.58a31.74,31.74,0,0,1-1.13,3.14l1.85.78C16.08,75,16.48,73.87,16.83,72.74Z"/><path class="cls-1" d="M10.25,85,8.53,84A14.48,14.48,0,0,0,7,87.37L9,87.94A12.53,12.53,0,0,1,10.25,85Z"/><path class="cls-1" d="M14.08,79.27l-1.76-1c-.54,1-1.13,1.92-1.76,2.84l1.66,1.14C12.89,81.32,13.51,80.3,14.08,79.27Z"/><path class="cls-1" d="M6.78,94.68l2-.43a12.23,12.23,0,0,1-.29-2.71v-.46l-2-.07c0,.18,0,.35,0,.53A14.32,14.32,0,0,0,6.78,94.68Z"/><path class="cls-1" d="M40.08,102.93V80.49H35.73V77H49v3.49H44.8v22.44Z"/><path class="cls-1" d="M49.6,102.93,54.88,77H59.8l5.25,25.93H60.66l-1-6H55.13l-1.07,6Zm6-9.11H59.1L57.36,83.17Z"/><path class="cls-1" d="M74.14,103.24q-6.86,0-7.19-7.91l4.11-.86q.15,5.15,2.94,5.14A1.92,1.92,0,0,0,75.6,99a2.72,2.72,0,0,0,.53-1.76,4.93,4.93,0,0,0-.39-2,5.69,5.69,0,0,0-.91-1.47c-.35-.38-.84-.85-1.47-1.42L70,89.37a9.66,9.66,0,0,1-2.24-2.73A7.64,7.64,0,0,1,67,83.1a6.12,6.12,0,0,1,1.77-4.69,6.93,6.93,0,0,1,4.88-1.71,7.77,7.77,0,0,1,2.51.35A5.48,5.48,0,0,1,78,78a5.15,5.15,0,0,1,1.19,1.54,8.3,8.3,0,0,1,.71,1.91,15.11,15.11,0,0,1,.33,2.22l-4,.79c0-.52,0-1-.1-1.36A8.69,8.69,0,0,0,75.8,82a2.86,2.86,0,0,0-.45-1,1.94,1.94,0,0,0-.73-.59,2.54,2.54,0,0,0-2.68.53,2.46,2.46,0,0,0-.55,1.69,3.88,3.88,0,0,0,.49,2.06,8,8,0,0,0,1.54,1.73l3.38,2.94a18.53,18.53,0,0,1,1.47,1.48,12.11,12.11,0,0,1,1.2,1.65,7.52,7.52,0,0,1,.86,2,8.93,8.93,0,0,1,.3,2.34,6.19,6.19,0,0,1-1.79,4.6A6.39,6.39,0,0,1,74.14,103.24Z"/><path class="cls-1" d="M83.4,102.93V77h4.72V88.26L93.22,77h4.5l-5,11.6,5.48,14.33H93.53l-4.47-12.2-.94,1.69v10.51Z"/><path class="cls-1" d="M100.37,102.93V77h4.72V99.66h6.21v3.27Z"/><path class="cls-1" d="M113.94,102.93V77h4.66v25.93Z"/><path class="cls-1" d="M129.12,103.24q-6.84,0-7.19-7.91l4.11-.86q.17,5.15,2.94,5.14a1.92,1.92,0,0,0,1.6-.66,2.72,2.72,0,0,0,.53-1.76,4.93,4.93,0,0,0-.39-2,5.43,5.43,0,0,0-.91-1.47,19.1,19.1,0,0,0-1.47-1.42l-3.41-2.95a9.45,9.45,0,0,1-2.23-2.73A7.64,7.64,0,0,1,122,83.1a6.09,6.09,0,0,1,1.78-4.69,6.88,6.88,0,0,1,4.87-1.71,7.77,7.77,0,0,1,2.51.35,5.38,5.38,0,0,1,1.81,1,5.15,5.15,0,0,1,1.19,1.54,8.3,8.3,0,0,1,.71,1.91,13.88,13.88,0,0,1,.33,2.22l-4,.79c0-.52-.05-1-.1-1.36a7.37,7.37,0,0,0-.24-1.17,2.68,2.68,0,0,0-.45-1,1.87,1.87,0,0,0-.73-.59,2.54,2.54,0,0,0-2.68.53,2.46,2.46,0,0,0-.55,1.69,3.88,3.88,0,0,0,.49,2.06,8,8,0,0,0,1.54,1.73l3.38,2.94a18.53,18.53,0,0,1,1.47,1.48,12.11,12.11,0,0,1,1.2,1.65,7.22,7.22,0,0,1,.86,2,8.93,8.93,0,0,1,.3,2.34,6.19,6.19,0,0,1-1.79,4.6A6.39,6.39,0,0,1,129.12,103.24Z"/><path class="cls-1" d="M140.91,102.93V80.49h-4.34V77h13.27v3.49h-4.2v22.44Z"/><path class="cls-1" d="M66.19,130.42V108.17h6.4q5.68,0,5.69,6.32A5.93,5.93,0,0,1,76.72,119a6.2,6.2,0,0,1-4.38,1.44h-2.1v9.94Zm4-12.79h1.31a3.09,3.09,0,0,0,2.32-.67,3.83,3.83,0,0,0,.6-2.49,12.82,12.82,0,0,0-.08-1.6,2.52,2.52,0,0,0-.38-1,1.49,1.49,0,0,0-.88-.63,5.45,5.45,0,0,0-1.57-.18H70.24Z"/><path class="cls-1" d="M78.2,130.42l4.52-22.25H87l4.51,22.25H87.69l-.9-5.16H82.94L82,130.42Zm5.17-7.81h3l-1.49-9.13Z"/><path class="cls-1" d="M99.15,130.72a5.19,5.19,0,0,1-4.55-2A10,10,0,0,1,93.22,123v-7.24a15.84,15.84,0,0,1,.3-3.31,7,7,0,0,1,1-2.44,4.43,4.43,0,0,1,2-1.57,7.89,7.89,0,0,1,3.06-.52q3.3,0,4.74,1.62a7.22,7.22,0,0,1,1.43,4.9v1.09h-3.88v-1.16q0-.74,0-1.2a5.24,5.24,0,0,0-.16-1,1.72,1.72,0,0,0-.37-.73,1.79,1.79,0,0,0-.66-.42,3,3,0,0,0-1-.16,2.55,2.55,0,0,0-.81.12,2.09,2.09,0,0,0-.6.28,1.47,1.47,0,0,0-.41.47,3.66,3.66,0,0,0-.25.6,3.82,3.82,0,0,0-.13.75,6.17,6.17,0,0,0-.06.8c0,.23,0,.53,0,.9v9a6.55,6.55,0,0,0,.5,2.94,1.94,1.94,0,0,0,1.89.93,2.46,2.46,0,0,0,1.21-.27,1.83,1.83,0,0,0,.77-.83,4.69,4.69,0,0,0,.39-1.28,12.06,12.06,0,0,0,.11-1.73v-1.83h-2.4v-2.62h6v11.3h-2.63l-.29-2.25A3.73,3.73,0,0,1,99.15,130.72Z"/><path class="cls-1" d="M108.9,130.42V108.17h9.32V111H113v6.39h4.16v2.86H113v7.34h5.33v2.8Z"/><path class="cls-1" d="M53.07,49.19v.72H47.46V42H52.9v.72H48.3v2.82h4.1v.71H48.3v2.95Z"/><path class="cls-1" d="M54.28,49l.33-.65a3.85,3.85,0,0,0,2.61,1c1.49,0,2.13-.63,2.13-1.41,0-2.17-4.88-.84-4.88-3.77,0-1.16.91-2.17,2.92-2.17a4.47,4.47,0,0,1,2.46.7l-.28.67a4.13,4.13,0,0,0-2.18-.66c-1.45,0-2.09.65-2.09,1.44,0,2.17,4.88.86,4.88,3.75,0,1.16-.93,2.16-3,2.16A4.29,4.29,0,0,1,54.28,49Z"/><path class="cls-1" d="M63.42,42.71H60.64V42h6.41v.72H64.26v7.2h-.84Z"/><path class="cls-1" d="M67.34,49.35a.6.6,0,0,1,.6-.62.61.61,0,0,1,.61.62.61.61,0,0,1-.61.62A.61.61,0,0,1,67.34,49.35Z"/><path class="cls-1" d="M116.29,49.19v.72h-5.56v-.58L114,46.11c.9-.89,1.07-1.42,1.07-2,0-.92-.65-1.48-1.86-1.48a2.68,2.68,0,0,0-2.16.88l-.58-.5a3.58,3.58,0,0,1,2.81-1.13c1.61,0,2.63.81,2.63,2.14a3.25,3.25,0,0,1-1.31,2.48l-2.69,2.65Z"/><path class="cls-1" d="M117.26,46c0-2.53,1.33-4,3.16-4s3.17,1.5,3.17,4-1.34,4-3.17,4S117.26,48.47,117.26,46Zm5.49,0c0-2.12-1-3.28-2.33-3.28s-2.33,1.16-2.33,3.28,1,3.28,2.33,3.28S122.75,48.07,122.75,46Z"/><path class="cls-1" d="M126.93,42v7.92h-.82v-7.2h-1.86V42Z"/><path class="cls-1" d="M134.91,47.7c0,1.41-1.19,2.28-3.08,2.28s-3.05-.87-3.05-2.28a2,2,0,0,1,1.52-1.94A1.8,1.8,0,0,1,129.06,44c0-1.29,1.1-2.09,2.77-2.09s2.8.8,2.8,2.09a1.8,1.8,0,0,1-1.27,1.75A2,2,0,0,1,134.91,47.7Zm-.84,0c0-1-.83-1.58-2.24-1.58s-2.23.61-2.23,1.58.83,1.6,2.23,1.6S134.07,48.68,134.07,47.69Zm-2.24-2.23c1.24,0,2-.55,2-1.41s-.78-1.44-2-1.44-2,.54-2,1.43S130.6,45.46,131.83,45.46Z"/><path class="cls-1" d="M85.16,146v3.76h-.79v-.95a2.27,2.27,0,0,1-2.08,1c-1.38,0-2.22-.71-2.22-1.76s.6-1.72,2.34-1.72h1.93v-.37c0-1-.59-1.6-1.72-1.6a3.1,3.1,0,0,0-2,.71l-.37-.61a3.84,3.84,0,0,1,2.47-.82A2.16,2.16,0,0,1,85.16,146Zm-.82,1.93v-1H82.43c-1.17,0-1.55.46-1.55,1.09s.56,1.14,1.53,1.14A1.94,1.94,0,0,0,84.34,147.9Z"/><path class="cls-1" d="M86.54,149l.37-.64a3.64,3.64,0,0,0,2.15.68c1.16,0,1.63-.39,1.63-1,0-1.58-3.93-.34-3.93-2.74,0-1,.85-1.73,2.4-1.73a4.07,4.07,0,0,1,2.14.57l-.36.66a3.08,3.08,0,0,0-1.78-.52c-1.1,0-1.58.42-1.58,1,0,1.64,3.93.4,3.93,2.73,0,1-.92,1.73-2.5,1.73A4,4,0,0,1,86.54,149Z"/><path class="cls-1" d="M95.85,141.74a.59.59,0,0,1,.6-.57.58.58,0,0,1,.6.56.58.58,0,0,1-.6.6A.59.59,0,0,1,95.85,141.74Zm.19,1.92h.82v6.07H96Z"/><path class="cls-1" d="M98.3,149l.37-.64a3.64,3.64,0,0,0,2.15.68c1.16,0,1.63-.39,1.63-1,0-1.58-3.93-.34-3.93-2.74,0-1,.85-1.73,2.4-1.73a4.07,4.07,0,0,1,2.14.57l-.36.66a3.08,3.08,0,0,0-1.78-.52c-1.1,0-1.58.42-1.58,1,0,1.64,3.93.4,3.93,2.73,0,1-.92,1.73-2.5,1.73A4,4,0,0,1,98.3,149Z"/><path class="cls-1" d="M9.64,123.92a21,21,0,0,0,12.91,22.35,26.06,26.06,0,0,1,14.26,14.25,21,21,0,0,0,22.35,12.91,26,26,0,0,1,19.47,5.22,21,21,0,0,0,25.81,0,26,26,0,0,1,19.48-5.22,21,21,0,0,0,22.35-12.91,26,26,0,0,1,14.25-14.25,21,21,0,0,0,12.91-22.35,26,26,0,0,1,5.22-19.48,21,21,0,0,0,0-25.81,26,26,0,0,1-5.22-19.47,21,21,0,0,0-12.91-22.35,26.06,26.06,0,0,1-14.25-14.26A21,21,0,0,0,123.92,9.64a26,26,0,0,1-19.48-5.21,21,21,0,0,0-25.81,0A26,26,0,0,1,59.16,9.64,21,21,0,0,0,36.81,22.55,26.11,26.11,0,0,1,22.55,36.81,21,21,0,0,0,9.64,59.16,26,26,0,0,1,4.43,78.63a21,21,0,0,0,0,25.81A26,26,0,0,1,9.64,123.92Zm3.41-65.24A17.6,17.6,0,0,1,23.84,40,29.58,29.58,0,0,0,40,23.84,17.6,17.6,0,0,1,58.68,13.05,29.49,29.49,0,0,0,80.75,7.14a17.57,17.57,0,0,1,21.57,0,29.49,29.49,0,0,0,22.07,5.91,17.6,17.6,0,0,1,18.68,10.79A29.58,29.58,0,0,0,159.23,40,17.57,17.57,0,0,1,170,58.68a29.49,29.49,0,0,0,5.91,22.07,17.57,17.57,0,0,1,0,21.57A29.49,29.49,0,0,0,170,124.39a17.57,17.57,0,0,1-10.79,18.68,29.58,29.58,0,0,0-16.16,16.16A17.57,17.57,0,0,1,124.39,170a29.49,29.49,0,0,0-22.07,5.91,17.57,17.57,0,0,1-21.57,0,29.52,29.52,0,0,0-18.08-6.19,28.17,28.17,0,0,0-4,.28A17.57,17.57,0,0,1,40,159.23a29.58,29.58,0,0,0-16.16-16.16,17.6,17.6,0,0,1-10.79-18.68,29.49,29.49,0,0,0-5.91-22.07,17.57,17.57,0,0,1,0-21.57A29.49,29.49,0,0,0,13.05,58.68Z"/><path class="cls-1" d="M118.3,164.8l.12,2c1.11-.06,2.24-.07,3.34,0l.09-2A35,35,0,0,0,118.3,164.8Z"/><path class="cls-1" d="M125.08,18a12.3,12.3,0,0,1,3-.06l.21-2a14.83,14.83,0,0,0-3.46.07l-.21,0,.26,2Z"/><path class="cls-1" d="M18.33,119.81a34.89,34.89,0,0,0-.25-3.54l-2,.24c.13,1.11.21,2.23.23,3.33Z"/><path class="cls-1" d="M147.07,35.32a30.76,30.76,0,0,1-2.2-2.52l-1.58,1.25c.73.92,1.52,1.82,2.34,2.67Z"/><path class="cls-1" d="M125.35,165.09l-.24,2a14,14,0,0,0,1.7.1,14.79,14.79,0,0,0,2-.14l-.27-2A12.1,12.1,0,0,1,125.35,165.09Z"/><path class="cls-1" d="M141.24,31.16l1.7-1.08a29.56,29.56,0,0,1-1.64-2.9l-1.8.89A34.84,34.84,0,0,0,141.24,31.16Z"/><path class="cls-1" d="M139.89,24a14.79,14.79,0,0,0-2-3.08l-1.52,1.31a12.38,12.38,0,0,1,1.74,2.65Z"/><path class="cls-1" d="M18,125.08c.08-.57.14-1.15.19-1.73l-2-.17c0,.54-.1,1.09-.18,1.62a15,15,0,0,0-.14,1.88l2,0A12.61,12.61,0,0,1,18,125.08Z"/><path class="cls-1" d="M133.08,163.49a13.77,13.77,0,0,1-1.49.74l.77,1.85a13.73,13.73,0,0,0,1.72-.85,12.58,12.58,0,0,0,1.48-1l-1.2-1.61A12.27,12.27,0,0,1,133.08,163.49Z"/><path class="cls-1" d="M134,20.14l1.15-1.65a12.14,12.14,0,0,0-1-.65,14.17,14.17,0,0,0-2.23-1.05l-.7,1.88a12.16,12.16,0,0,1,1.93.91C133.39,19.76,133.69,20,134,20.14Z"/><path class="cls-1" d="M42.36,152.77l-1.73,1a29.57,29.57,0,0,1,1.55,2.95l1.83-.84A33.5,33.5,0,0,0,42.36,152.77Z"/><path class="cls-1" d="M36.65,148.44A32.76,32.76,0,0,1,38.78,151l1.61-1.2a34.43,34.43,0,0,0-2.26-2.73Z"/><path class="cls-1" d="M16.32,130.35a14.4,14.4,0,0,0,1.35,3.43l1.76-1a13.12,13.12,0,0,1-1.17-3Z"/><path class="cls-1" d="M75.73,169.49a32,32,0,0,1,3,1.49l1-1.74a33.5,33.5,0,0,0-3.17-1.59Z"/><path class="cls-1" d="M82.7,171.14l-1.17,1.64c.36.25.71.52,1.06.79a14.25,14.25,0,0,0,1.86,1.23l1-1.75A12.16,12.16,0,0,1,83.82,172C83.45,171.69,83.07,171.41,82.7,171.14Z"/><path class="cls-1" d="M43.68,160a14.23,14.23,0,0,0,2.24,2.93l1.43-1.41A12.82,12.82,0,0,1,45.41,159Z"/><path class="cls-1" d="M16.11,59a30.85,30.85,0,0,1,.21,3.33l2,0a32.18,32.18,0,0,0-.23-3.53Z"/><path class="cls-1" d="M31.67,144a32.56,32.56,0,0,1,2.6,2.09l1.34-1.5a32.82,32.82,0,0,0-2.77-2.22Z"/><path class="cls-1" d="M19.82,136.77a14.62,14.62,0,0,0,2.85,2.35l1.07-1.7a12.15,12.15,0,0,1-2.45-2Z"/><path class="cls-1" d="M25.89,140.69c1,.45,2,1,3,1.51l1-1.74a34.93,34.93,0,0,0-3.17-1.61Z"/><path class="cls-1" d="M172.33,98.79,174,100a14.21,14.21,0,0,0,1.74-3.26L173.82,96A12.84,12.84,0,0,1,172.33,98.79Z"/><path class="cls-1" d="M166,111.29l1.93.53c.3-1.07.65-2.14,1-3.17l-1.87-.72A33,33,0,0,0,166,111.29Z"/><path class="cls-1" d="M87.88,176.17a14.4,14.4,0,0,0,3.66.46v-2a12.78,12.78,0,0,1-3.16-.39Z"/><path class="cls-1" d="M143.62,148.61l1.56,1.27a30.94,30.94,0,0,1,2.24-2.48L146,146C145.17,146.81,144.37,147.7,143.62,148.61Z"/><path class="cls-1" d="M170,81l1.7-1.07A31.91,31.91,0,0,1,170.09,77l-1.81.89C168.81,79,169.39,80,170,81Z"/><path class="cls-1" d="M167.11,67.5c-.16-1.1-.28-2.22-.33-3.33l-2,.1a34.64,34.64,0,0,0,.34,3.52Z"/><path class="cls-1" d="M168.52,104.69l1.79.91c.51-1,1.07-2,1.67-2.89l-1.69-1.09C169.65,102.61,169.06,103.64,168.52,104.69Z"/><path class="cls-1" d="M160.46,136.62l1.25,1.57a14.29,14.29,0,0,0,2.56-2.65l-1.61-1.2A12.19,12.19,0,0,1,160.46,136.62Z"/><path class="cls-1" d="M164.24,131.57l1.85.77a14.35,14.35,0,0,0,1-3.56l-2-.27A12.29,12.29,0,0,1,164.24,131.57Z"/><path class="cls-1" d="M166.77,121.74l-2,.08a32.09,32.09,0,0,0,.29,3.26l0,.25,2-.24c0-.1,0-.19,0-.29C166.91,123.79,166.82,122.76,166.77,121.74Z"/><path class="cls-1" d="M164.81,118.28l2,.12c.07-1.1.2-2.22.38-3.32l-2-.33A32.31,32.31,0,0,0,164.81,118.28Z"/><path class="cls-1" d="M175.49,85.86a14.5,14.5,0,0,0-1.85-3.18L172,83.9a12.65,12.65,0,0,1,1.6,2.75Z"/><path class="cls-1" d="M158.05,42.75c-1-.42-2-.9-3-1.42l-.95,1.77a32.32,32.32,0,0,0,3.21,1.51Z"/><path class="cls-1" d="M157.35,138.44c-.95.38-1.89.81-2.8,1.28l.92,1.79c.86-.44,1.74-.85,2.63-1.21l.45-.19-.81-1.84Z"/><path class="cls-1" d="M152.18,39.6a30.54,30.54,0,0,1-2.67-2l-1.29,1.54c.91.76,1.86,1.48,2.83,2.14Z"/><path class="cls-1" d="M139.74,154.53l1.78.92a33.34,33.34,0,0,1,1.69-2.88l-1.68-1.1A32.18,32.18,0,0,0,139.74,154.53Z"/><path class="cls-1" d="M148.63,143.6l1.27,1.56c.86-.7,1.77-1.36,2.69-2l-1.1-1.68C150.51,142.16,149.54,142.86,148.63,143.6Z"/><path class="cls-1" d="M165.06,58c-.12.9-.21,1.82-.27,2.73l2,.12c0-.86.13-1.72.25-2.57,0-.28.07-.56.09-.83l-2-.17C165.12,57.51,165.09,57.75,165.06,58Z"/><path class="cls-1" d="M136.64,160.44l1.57,1.25a14.31,14.31,0,0,0,1.91-3.16l-1.84-.81A12.31,12.31,0,0,1,136.64,160.44Z"/><path class="cls-1" d="M167,53.75a14.11,14.11,0,0,0-1.1-3.52l-1.82.83a12.73,12.73,0,0,1,.94,3Z"/><path class="cls-1" d="M166.89,74.65l1.88-.69c-.38-1-.72-2.12-1-3.19l-1.95.5A33.1,33.1,0,0,0,166.89,74.65Z"/><path class="cls-1" d="M162.37,48.35l1.57-1.26a14.65,14.65,0,0,0-2.67-2.55l-1.19,1.62A12.49,12.49,0,0,1,162.37,48.35Z"/><path class="cls-1" d="M174.62,91.54a12.21,12.21,0,0,1-.07,1.35l2,.21a13.47,13.47,0,0,0,.08-1.56,14.8,14.8,0,0,0-.15-2.12l-2,.29A12.32,12.32,0,0,1,174.62,91.54Z"/><path class="cls-1" d="M42.86,29.43l-1.76-1a29.72,29.72,0,0,1-1.77,2.83L41,32.44A33.59,33.59,0,0,0,42.86,29.43Z"/><path class="cls-1" d="M44.63,25.72a12.75,12.75,0,0,1,1.27-2.36l-1.66-1.13A14.42,14.42,0,0,0,42.77,25c-.07.16-.13.32-.2.49l1.85.78Z"/><path class="cls-1" d="M38.8,35.23l-1.52-1.31A30.89,30.89,0,0,1,35,36.33l1.38,1.46A34.8,34.8,0,0,0,38.8,35.23Z"/><path class="cls-1" d="M50,19.58q.33-.2.66-.36l-.89-1.79a8.14,8.14,0,0,0-.77.41,14.93,14.93,0,0,0-2.3,1.63L48,21A12.67,12.67,0,0,1,50,19.58Z"/><path class="cls-1" d="M56.82,17.9l.09-2a14.24,14.24,0,0,0-3.68.3l.43,2A12.44,12.44,0,0,1,56.82,17.9Z"/><path class="cls-1" d="M49.86,163.42l-1,1.72.15.09a14.42,14.42,0,0,0,3.23,1.38l.56-1.93A12.47,12.47,0,0,1,50,163.49Z"/><path class="cls-1" d="M55.86,167.18h.4a15,15,0,0,0,2-.14l1.15-.14-.2-2q-.61.06-1.23.15a13,13,0,0,1-2.07.12Z"/><path class="cls-1" d="M33.65,40.09l-1.22-1.6a32,32,0,0,1-2.75,1.9l1.05,1.71A34.34,34.34,0,0,0,33.65,40.09Z"/><path class="cls-1" d="M18.52,52.35l-1.91-.64a14.57,14.57,0,0,0-.7,3.63l2,.12A12.25,12.25,0,0,1,18.52,52.35Z"/><path class="cls-1" d="M25.72,44.63c.64-.26,1.28-.54,1.9-.84L26.75,42c-.58.28-1.18.55-1.78.79a12.62,12.62,0,0,0-1.39.65l.94,1.78A13.17,13.17,0,0,1,25.72,44.63Z"/><path class="cls-1" d="M63.77,18.32l-.07-2a31,31,0,0,1-3.34-.07l-.14,2c.82.05,1.65.08,2.47.08Z"/><path class="cls-1" d="M18.19,65.8l-2-.19a30.68,30.68,0,0,1-.48,3.31l2,.39A34.91,34.91,0,0,0,18.19,65.8Z"/><path class="cls-1" d="M21.93,47l-1.36-1.47a14.65,14.65,0,0,0-2.37,2.83l1.69,1.08A13,13,0,0,1,21.93,47Z"/><path class="cls-1" d="M104.71,168.51l.91,1.79c1-.5,2-1,3-1.36l-.72-1.88C106.85,167.49,105.76,168,104.71,168.51Z"/><path class="cls-1" d="M108.21,14a33.33,33.33,0,0,1-3-1.41l-.94,1.78a34.75,34.75,0,0,0,3.22,1.49Z"/><path class="cls-1" d="M89.26,8.65l-.36-2a14.58,14.58,0,0,0-3.52,1.12l.85,1.82A12.43,12.43,0,0,1,89.26,8.65Z"/><path class="cls-1" d="M96.2,7.2a14.28,14.28,0,0,0-3.62-.73l-.14,2a12.16,12.16,0,0,1,3.12.62Z"/><path class="cls-1" d="M114.62,15.81a32.65,32.65,0,0,1-3.25-.77L110.81,17a33.87,33.87,0,0,0,3.45.81Z"/><path class="cls-1" d="M62.76,166.74c1.1,0,2.22.07,3.33.19l.21-2a32.16,32.16,0,0,0-3.54-.19Z"/><path class="cls-1" d="M99.25,172l-.44.33L100,174c.17-.13.35-.25.51-.38.72-.57,1.48-1.1,2.25-1.6l-1.09-1.69C100.82,170.81,100,171.38,99.25,172Z"/><path class="cls-1" d="M111.84,167.89a33.42,33.42,0,0,1,3.27-.71l-.33-2a34.64,34.64,0,0,0-3.47.76Z"/><path class="cls-1" d="M92.91,174.55l.22,2a14.25,14.25,0,0,0,3.59-.86L96,173.81A11.92,11.92,0,0,1,92.91,174.55Z"/><path class="cls-1" d="M121.32,18.32l-.06-2a30.79,30.79,0,0,1-3.33-.08l-.16,2c.87.06,1.74.1,2.61.1Z"/><path class="cls-1" d="M101.2,12.5l1.12-1.67c-.63-.42-1.25-.87-1.84-1.32-.31-.25-.63-.48-1-.7l-1.11,1.68q.44.28.84.6Q100.2,11.83,101.2,12.5Z"/><path class="cls-1" d="M77.46,15l-.86-1.81c-1,.47-2,.9-3.09,1.27l.67,1.9C75.29,16,76.39,15.51,77.46,15Z"/><path class="cls-1" d="M69.38,167.45a32,32,0,0,1,3.23.86l.62-1.92c-1.13-.36-2.28-.66-3.43-.91Z"/><path class="cls-1" d="M83.51,11.33,82.3,9.73c-.89.67-1.81,1.3-2.76,1.88l1,1.71A34.28,34.28,0,0,0,83.51,11.33Z"/><path class="cls-1" d="M70.78,17.36l-.47-1.95A33.24,33.24,0,0,1,67,16l.27,2A34.41,34.41,0,0,0,70.78,17.36Z"/><path class="cls-1" d="M90.58,32.24V20.64H89.16c-.56,2.57-4.52,20.13-9.38,25.62,0,0,4.42,5,4.83,10.29H98.46c.42-5.33,4.83-10.29,4.83-10.29-4.86-5.49-8.82-23-9.38-25.62H92.49v11.6a2.68,2.68,0,1,1-1.91,0Z"/><rect class="cls-1" x="83.02" y="58.84" width="17.04" height="7.51"/><polygon class="cls-1" points="45.34 113.34 41.55 117.13 37.77 113.34 37.16 113.95 36.55 114.56 40.34 118.34 36.55 122.13 37.16 122.74 37.77 123.35 41.55 119.56 45.34 123.35 46.56 122.13 42.77 118.34 46.56 114.56 45.34 113.34"/><polygon class="cls-1" points="137.73 113.34 136.51 114.56 140.3 118.34 136.51 122.13 137.73 123.35 141.52 119.56 145.31 123.35 145.91 122.74 146.52 122.13 142.73 118.34 146.52 114.56 145.91 113.95 145.31 113.34 141.52 117.13 137.73 113.34"/></g></g></svg>